Coordinates
version=1
nRows=21
nColumns=22
inDegrees=yes

Units are S.I. units (second, meters, Newtons, ...)
If the header above contains a line with 'inDegrees', this indicates whether rotational values are in degrees (yes) or radians (no).

endheader
time	pelvis_tilt	pelvis_list	pelvis_rotation	pelvis_tx	pelvis_ty	pelvis_tz	hip_flexion_r	hip_adduction_r	hip_rotation_r	knee_angle_r	ankle_angle_r	subtalar_angle_r	hip_flexion_l	hip_adduction_l	hip_rotation_l	knee_angle_l	ankle_angle_l	subtalar_angle_l	lumbar_extension	lumbar_bending	lumbar_rotation
      1.40000000	      0.28434398	      3.57966199	     -0.76442563	     -0.98391513	      0.89948089	     -0.52381127	     14.38876946	     -9.11236940	     -2.36099295	    -41.63655252	     18.70970346	    -12.27574034	     -1.48629775	      5.42894477	    -14.47236164	    -13.81268203	     18.48305349	     -3.16824883	    -11.59549685	     -3.91452489	      2.22936362
      1.41000000	      0.30682593	      3.56439615	     -0.72856354	     -0.98248922	      0.89940446	     -0.52489076	     15.60970079	     -8.94381370	     -1.99479446	    -43.57375334	     18.52693811	    -13.27880861	     -1.74367390	      5.49705145	    -14.48155562	    -13.58329745	     18.51283469	     -3.05018926	    -11.84724504	     -3.86503136	      2.06036492
      1.42000000	      0.34535396	      3.53884934	     -0.64277640	     -0.98084117	      0.89938082	     -0.52596020	     16.71530075	     -8.77305095	     -1.80946466	    -45.26142410	     18.43346819	    -13.87689630	     -2.05071582	      5.55355199	    -14.39792381	    -13.31797795	     18.50241353	     -2.92301406	    -12.09792471	     -3.79866621	      1.84656274
      1.43000000	      0.39849985	      3.42077677	     -0.48135662	     -0.97902819	      0.89942158	     -0.52701120	     17.68135609	     -8.51327294	     -1.83469561	    -46.64821953	     18.38266167	    -14.67734897	     -2.33056073	      5.47321800	    -14.35587212	    -13.16189678	     18.60934996	     -2.71712492	    -12.36256021	     -3.61727199	      1.59187825
      1.44000000	      0.45082888	      3.30794156	     -0.25549241	     -0.97701385	      0.89948509	     -0.52811104	     18.55701456	     -8.28907470	     -2.02264127	    -47.78011497	     18.38701718	    -14.94885726	     -2.62797370	      5.39817664	    -14.19851417	    -12.99007826	     18.65837095	     -2.55731739	    -12.60849380	     -3.42576218	      1.26893416
      1.45000000	      0.54223455	      3.16018314	     -0.02735896	     -0.97484351	      0.89962486	     -0.52912470	     19.31521963	     -8.02519969	     -2.29053987	    -48.64903021	     18.34755210	    -15.10105190	     -2.96175588	      5.27116309	    -14.06376141	    -12.84990363	     18.77933738	     -2.43476433	    -12.89397494	     -3.19655068	      0.98354057
      1.46000000	      0.59433245	      2.98232290	      0.26264573	     -0.97250812	      0.89972445	     -0.53017225	     20.02374909	     -7.75122473	     -2.67970816	    -49.25189225	     18.37355162	    -15.25752559	     -3.23758430	      5.09901179	    -13.87303694	    -12.75293761	     18.86698186	     -2.27215759	    -13.11832432	     -2.91527631	      0.64062737
      1.47000000	      0.65317126	      2.78968580	      0.55040885	     -0.97003362	      0.89982896	     -0.53114149	     20.66332997	     -7.46570265	     -3.11778788	    -49.61387012	     18.39253896	    -15.37749050	     -3.50997989	      4.90157529	    -13.68152399	    -12.68928186	     18.95820749	     -2.12336638	    -13.34169028	     -2.62064281	      0.32238572
      1.48000000	      0.71437007	      2.58860353	      0.83727948	     -0.96742124	      0.89992287	     -0.53206571	     21.24378405	     -7.17907620	     -3.58612194	    -49.74964178	     18.40234301	    -15.45889190	     -3.77480383	      4.68970752	    -13.48102785	    -12.65586658	     19.05857773	     -2.00158762	    -13.55823619	     -2.31189130	      0.02322660
      1.49000000	      0.77596459	      2.38066815	      1.11821455	     -0.96467475	      0.89999392	     -0.53292023	     21.76984456	     -6.88919211	     -4.06804724	    -49.66852005	     18.40001492	    -15.50507574	     -4.02865639	      4.46482961	    -13.27216432	    -12.65437923	     19.17440293	     -1.91129931	    -13.76696892	     -1.99821811	     -0.24926567
      1.50000000	      0.84383831	      2.16647891	      1.38353711	     -0.96179363	      0.90003866	     -0.53369922	     22.23970204	     -6.59706586	     -4.55140276	    -49.38227518	     18.39147868	    -15.51959964	     -4.27433874	      4.22844240	    -13.05717456	    -12.69468946	     19.30872522	     -1.84865708	    -13.97572530	     -1.67720694	     -0.49498153
      1.51000000	      0.94105125	      1.95065286	      1.64624261	     -0.95874456	      0.90008968	     -0.53441758	     22.61855333	     -6.31666803	     -5.05633760	    -48.89471129	     18.36906995	    -15.49732264	     -4.54392696	      3.98213145	    -12.86032782	    -12.76680371	     19.48040393	     -1.80332808	    -14.20786600	     -1.35487583	     -0.74574107
      1.52000000	      1.00882937	      1.71966144	      1.87362150	     -0.95558004	      0.90005584	     -0.53498731	     22.98745648	     -5.99281236	     -5.48789835	    -48.21991092	     18.35244471	    -15.43597447	     -4.77288135	      3.71888294	    -12.62453923	    -12.86926509	     19.63337059	     -1.79857458	    -14.40068435	     -1.03173146	     -0.90221361
      1.53000000	      1.11891089	      1.47987228	      2.10439117	     -0.95218668	      0.90003446	     -0.53552395	     23.24763592	     -5.68870275	     -5.97670217	    -47.37058582	     18.31027206	    -15.30301419	     -5.06332041	      3.43976933	    -12.42318762	    -12.96745569	     19.84843982	     -1.81801442	    -14.62205903	     -0.68900316	     -1.09836718
      1.54000000	      1.21684311	      1.23306512	      2.31171783	     -0.94865370	      0.89994845	     -0.53592245	     23.47339014	     -5.35388298	     -6.40501917	    -46.35529226	     18.26391310	    -15.11017171	     -5.34226404	      3.15023416	    -12.19818966	    -13.07913998	     20.05477283	     -1.85760253	    -14.82245115	     -0.35522034	     -1.23680412
      1.55000000	      1.30389119	      0.97811187	      2.51104332	     -0.94498304	      0.89979060	     -0.53622436	     23.66489497	     -5.00414550	     -6.81008410	    -45.19479322	     18.19429415	    -14.89043602	     -5.59682952	      2.84457583	    -11.96664696	    -13.23187536	     20.26943977	     -1.90290744	    -15.00447944	     -0.02011608	     -1.32319970
      1.56000000	      1.45887683	      0.73677599	      2.69870638	     -0.94107468	      0.89968576	     -0.53645484	     23.72267686	     -4.66723488	     -7.20758644	    -43.89385591	     18.11602853	    -14.41474949	     -5.98464954	      2.55858199	    -11.70108859	    -13.29992943	     20.50226892	     -1.96162959	    -15.24841364	      0.30074786	     -1.42673538
      1.57000000	      1.55525931	      0.48766073	      2.88232942	     -0.93703093	      0.89942319	     -0.53660359	     23.80873847	     -4.31704691	     -7.57902594	    -42.48751411	     17.99572357	    -13.97589091	     -6.28977561	      2.25303872	    -11.47463659	    -13.42084988	     20.75301106	     -1.99997294	    -15.41484298	      0.62491545	     -1.50327108
      1.58000000	      1.65758095	      0.23810271	      3.06628489	     -0.93279971	      0.89911113	     -0.53666613	     23.83987617	     -3.96373956	     -7.95218382	    -40.97533763	     17.84176063	    -13.46670861	     -6.61729166	      1.93813083	    -11.25664466	    -13.53400708	     21.00695591	     -2.02477926	    -15.57683765	      0.94122863	     -1.57034015
      1.59000000	      1.75219961	     -0.00103965	      3.25343835	     -0.92840448	      0.89872032	     -0.53665645	     23.84007182	     -3.61787896	     -8.31414478	    -39.38185032	     17.66002453	    -12.93060910	     -6.94541305	      1.62381033	    -11.05245235	    -13.64823457	     21.27368081	     -2.02970234	    -15.72009319	      1.24305018	     -1.63545227
      1.60000000	      1.85034218	     -0.23145340	      3.44522440	     -0.92381847	      0.89826720	     -0.53659158	     23.79655458	     -3.28574038	     -8.69864087	    -37.72196332	     17.44006457	    -12.32478884	     -7.29456921	      1.30842197	    -10.86569647	    -13.75316496	     21.54005785	     -2.01243603	    -15.85513939	      1.53323416	     -1.70153800
